<svg id="outline" height="512" viewBox="0 0 512 512" width="512" xmlns="http://www.w3.org/2000/svg">
    <path d="m92.6 365.523a55.277 55.277 0 0 0 51.517 33.971h167.883a8 8 0 0 0 5.657-2.343l16-16 131.862-131.862a47.849 47.849 0 0 0 0-67.59l-87.725-87.724a47.848 47.848 0 0 0 -67.588 0l-131.863 131.862c-.051.051-.095.107-.144.16l-.006-.006-74.666 78.8a55.277 55.277 0 0 0 -10.927 60.732zm228.919-260.234a31.829 31.829 0 0 1 44.962 0l87.725 87.725a31.828 31.828 0 0 1 0 44.961l-22.206 22.205-132.686-132.686zm-206.392 210.523 69.028-72.849 18.188 18.188 11.314-11.314-18.344-18.343 92.687-92.686 108.686 108.686-74.343 74.343 11.314 11.314 74.343-74.343 12.686 12.686-92.686 92.687-98.343-98.344-11.314 11.314 98.343 98.343-8 8h-164.572a40.048 40.048 0 0 1 -28.987-67.682z" />
    <path d="m429.657 237.151 16-16a8 8 0 0 0 0-11.314l-16-16-11.314 11.314 10.344 10.343-10.344 10.343z" />
    <path d="m176 279.494h16v16h-16z" />
    <path d="m160 295.494h16v16h-16z" />
    <path d="m16 415.494h480v16h-480z" />
    <path d="m72 383.494h16v16h-16z" />
    <path d="m44 354.524h16v33.941h-16z" transform="matrix(.707 -.707 .707 .707 -247.465 145.591)" />
    <path d="m413.657 369.837a8 8 0 0 0 -11.314 0l-10.343 10.344-10.343-10.344a8 8 0 0 0 -11.314 0l-16 16 11.314 11.314 10.343-10.343 10.343 10.343a8 8 0 0 0 11.314 0l10.343-10.343 10.343 10.343a8 8 0 0 0 5.657 2.343h48v-16h-44.686z" />
</svg>
