<?xml version="1.0" encoding="UTF-8" standalone="no"?>
<svg xmlns="http://www.w3.org/2000/svg" width="128" height="128" viewBox="0 0 12.7 12.7" version="1.1">
  <g transform="translate(0,-284.29998)">
    <path d="m 2.4292406,284.32258 -0.00426,5.194 0.6179814,0.66441 -0.6190211,0.57483 0.6179814,0.6644 -0.6203892,0.61935 0.6193496,0.61989 -0.6198695,0.61986 0.6193496,0.61986 -0.6203903,0.61988 -0.00104,1.23922 1.23922,1.24077 0.95706,10e-4 0.6203902,-0.61988 0.00156,-2.19346 h 0.00312 v -3.01723 h 1.2901822 c 2.1984804,0 4.0624321,-1.08312 4.0624321,-3.52057 0,-2.5171 -1.8482601,-3.34585 -4.1263952,-3.34585 -1.6468851,-0.006 -2.390624,-0.004 -4.0373053,0.0194 z m 2.8110727,1.84482 h 1.0832115 c 1.2744817,0 1.9750539,0.39825 1.9750539,1.48155 0,1.08331 -0.6211981,1.65682 -1.9116106,1.65682 H 5.2403133 Z m -1.2428599,2.97944 0.6198694,-0.68973 -0.00104,7.30324 -0.6203893,0.61934 z" fill="#5f8dd3" />
  </g>
</svg>
